# xmcd CD database file
#
# Track frame offsets:
#	150
#	22506
#	37513
#	52405
#	73412
#	86929
#	104836
#	132138
#	154273
#	179130
#	199233
#	223418
#	244584
#	272726
#
# Disc length: 3929 seconds
#
# Revision: 0
# Processed by: cddbd v1.5.2PL0 Copyright (c) Steve Scherf et al.
# Submitted via: CDex 1.50
#
DISCID=d90f570e
DTITLE=Montgomery, Wes - Zweitausendeins Box CD 1
DYEAR=1900
DGENRE=Jazz
TTITLE0='Round Midnight
TTITLE1=Yesterdays
TTITLE2=The End Of A Love Affair
TTITLE3=Whisper Not
TTITLE4=Ecaroh
TTITLE5=Satin Doll
TTITLE6=Missile Blues
TTITLE7=Too Late Now
TTITLE8=Jingles
TTITLE9=Airegin
TTITLE10=D-Natural Blues
TTITLE11=Polka Dots And Moonbeams
TTITLE12=Four On Six
TTITLE13=In Your Own Sweet Way
EXTD=
EXTT0=
EXTT1=
EXTT2=
EXTT3=
EXTT4=
EXTT5=
EXTT6=
EXTT7=
EXTT8=
EXTT9=
EXTT10=
EXTT11=
EXTT12=
EXTT13=
PLAYORDER=
